<svg xmlns="http://www.w3.org/2000/svg" xmlns:xlink="http://www.w3.org/1999/xlink" style="isolation:isolate" viewBox="0 0 480 480" width="480pt" height="480pt"><defs><clipPath id="_clipPath_5M2HJXUazqwXjvZUd3213Ssf0jrAOfqj"><rect width="480" height="480"/></clipPath></defs><g clip-path="url(#_clipPath_5M2HJXUazqwXjvZUd3213Ssf0jrAOfqj)"><rect x="0" y="0" width="480" height="480" transform="matrix(1,0,0,1,0,0)" fill="rgb(255,255,0)"/><clipPath id="_clipPath_B7Tyj6SaiZNLWAVOuap4glJN1Gp4J1lo"><rect x="0" y="0" width="480" height="480" transform="matrix(1,0,0,1,0,0)" fill="rgb(255,255,0)"/></clipPath><g clip-path="url(#_clipPath_B7Tyj6SaiZNLWAVOuap4glJN1Gp4J1lo)"><g><path d=" M 241.561 118.06 C 256.552 125.556 298.167 119.701 329.561 113.695 C 352.117 86.801 373.285 58.773 392.981 29.72 C 272.476 29.72 192.905 46.603 140.905 71.398 C 131.076 90.944 120.842 115.915 115.379 143.297 C 115.379 132.395 117.738 107.373 120.401 82.464 C 111.429 87.903 103.366 93.568 96.401 99.474 C 90.193 134.439 90.142 168.534 90.142 168.534 C 90.142 168.534 82.457 145.404 77.688 118.325 C 21.36 186.628 64.905 269.467 64.905 269.467 C 64.905 269.467 162.697 296.029 306.028 140.496 C 281.536 137.467 254.71 131.209 241.561 118.06 Z " fill="rgb(255,61,0)"/><path d=" M 241.561 118.06 C 256.552 125.556 298.167 119.701 329.561 113.695 C 352.117 86.801 373.285 58.773 392.981 29.72 C 292.817 39.184 64.905 176.407 64.905 269.467 C 64.905 269.467 162.697 296.029 306.028 140.496 C 281.536 137.467 254.71 131.209 241.561 118.06 Z " fill="rgb(221,44,0)"/><path d=" M 37.998 412.267 C 9.477 126.322 342.104 37.455 392.981 29.72 C 349.896 38.085 183.104 85.271 75 269.972 Q 68.462 310.236 37.998 412.267 Z " fill="rgb(255,204,188)"/></g><g clip-path="url(#_clipPath_aRsI2yibwdVsnIzFTjNvI3aelz38LcNI)"><text transform="matrix(0.533,0,0,0.533,174.938,459.792)" style="font-family:'Satoshi';font-weight:700;font-size:486px;font-style:normal;fill:#000000;stroke:none;">JS</text></g><defs><clipPath id="_clipPath_aRsI2yibwdVsnIzFTjNvI3aelz38LcNI"><rect x="0" y="0" width="586" height="450" transform="matrix(0.533,0,0,0.533,167.467,240)"/></clipPath></defs></g></g></svg>