<?xml version="1.0" encoding="UTF-8" standalone="no"?><!-- Generator: Gravit.io --><svg xmlns="http://www.w3.org/2000/svg" xmlns:xlink="http://www.w3.org/1999/xlink" style="isolation:isolate" viewBox="0 0 25 25" width="25pt" height="25pt"><defs><clipPath id="_clipPath_KQzXGMcSWHnkBSY1tBqq7hIFXyEQn01o"><rect width="25" height="25"/></clipPath></defs><g clip-path="url(#_clipPath_KQzXGMcSWHnkBSY1tBqq7hIFXyEQn01o)"><g><mask id="_mask_zpWDicrak9oGoO6T3h4j6NuiuuFT22b0"><path d=" M 21.7 5.6 L 11.35 5.6 L 9.05 3.3 L 3.3 3.3 C 2.035 3.3 1 4.335 1 5.6 L 1 10.2 L 24 10.2 L 24 7.9 C 24 6.635 22.965 5.6 21.7 5.6 Z " fill="white" stroke="none"/></mask><path d=" M 21.7 5.6 L 11.35 5.6 L 9.05 3.3 L 3.3 3.3 C 2.035 3.3 1 4.335 1 5.6 L 1 10.2 L 24 10.2 L 24 7.9 C 24 6.635 22.965 5.6 21.7 5.6 Z " fill="rgb(255,255,255)"/><path d=" M 21.7 5.6 L 11.35 5.6 L 9.05 3.3 L 3.3 3.3 C 2.035 3.3 1 4.335 1 5.6 L 1 10.2 L 24 10.2 L 24 7.9 C 24 6.635 22.965 5.6 21.7 5.6 Z " fill="rgb(255,255,255)" mask="url(#_mask_zpWDicrak9oGoO6T3h4j6NuiuuFT22b0)" vector-effect="non-scaling-stroke" stroke-width="2" stroke="rgb(0,0,0)" stroke-linejoin="miter" stroke-linecap="square" stroke-miterlimit="3"/><mask id="_mask_dPdc4OhPB72TwSlrrJf5g3YqX0hzKdOt"><path d=" M 21.7 8 L 3.3 8 C 2.035 8 1 8.881 1 9.957 L 1 19.743 C 1 20.819 2.035 21.7 3.3 21.7 L 21.7 21.7 C 22.965 21.7 24 20.819 24 19.743 L 24 9.957 C 24 8.881 22.965 8 21.7 8 Z " fill="white" stroke="none"/></mask><path d=" M 21.7 8 L 3.3 8 C 2.035 8 1 8.881 1 9.957 L 1 19.743 C 1 20.819 2.035 21.7 3.3 21.7 L 21.7 21.7 C 22.965 21.7 24 20.819 24 19.743 L 24 9.957 C 24 8.881 22.965 8 21.7 8 Z " fill="rgb(255,255,255)"/><path d=" M 21.7 8 L 3.3 8 C 2.035 8 1 8.881 1 9.957 L 1 19.743 C 1 20.819 2.035 21.7 3.3 21.7 L 21.7 21.7 C 22.965 21.7 24 20.819 24 19.743 L 24 9.957 C 24 8.881 22.965 8 21.7 8 Z " fill="rgb(255,255,255)" mask="url(#_mask_dPdc4OhPB72TwSlrrJf5g3YqX0hzKdOt)" vector-effect="non-scaling-stroke" stroke-width="2" stroke="rgb(0,0,0)" stroke-linejoin="miter" stroke-linecap="square" stroke-miterlimit="3"/></g></g></svg>