<?xml version="1.0" encoding="UTF-8" standalone="no"?><!-- Generator: Gravit.io --><svg xmlns="http://www.w3.org/2000/svg" xmlns:xlink="http://www.w3.org/1999/xlink" style="isolation:isolate" viewBox="0 0 25 25" width="25pt" height="25pt"><defs><clipPath id="_clipPath_RP9P7N5HxgxHhe2J48KDVoLRaJ8RIADn"><rect width="25" height="25"/></clipPath></defs><g clip-path="url(#_clipPath_RP9P7N5HxgxHhe2J48KDVoLRaJ8RIADn)"><path d=" M 6.375 2 C 4.933 2 3.75 3.183 3.75 4.625 L 3.75 20.375 C 3.75 21.817 4.933 23 6.375 23 L 18.625 23 C 20.067 23 21.25 21.817 21.25 20.375 L 21.25 7.763 L 15.487 2 L 6.375 2 Z  M 6.375 3.75 L 14.25 3.75 L 14.25 9 L 19.5 9 L 19.5 20.375 C 19.5 20.867 19.117 21.25 18.625 21.25 L 6.375 21.25 C 6.142 21.253 5.918 21.162 5.753 20.997 C 5.588 20.832 5.497 20.608 5.5 20.375 L 5.5 4.625 C 5.5 4.133 5.883 3.75 6.375 3.75 Z " fill="rgb(255,255,255)"/></g></svg>