<?xml version="1.0" encoding="UTF-8" standalone="no"?><!-- Generator: Gravit.io --><svg xmlns="http://www.w3.org/2000/svg" xmlns:xlink="http://www.w3.org/1999/xlink" style="isolation:isolate" viewBox="0 0 25 25" width="25pt" height="25pt"><defs><clipPath id="_clipPath_fhYEIVOCGpOtxqRfzWwxsvESh0XogsyY"><rect width="25" height="25"/></clipPath></defs><g clip-path="url(#_clipPath_fhYEIVOCGpOtxqRfzWwxsvESh0XogsyY)"><path d=" M 12.5 23 C 13.685 23 14.654 22.031 14.654 20.846 L 10.346 20.846 C 10.346 22.031 11.315 23 12.5 23 Z  M 18.962 16.538 L 18.962 11.154 C 18.962 7.848 17.206 5.08 14.115 4.348 L 14.115 3.615 C 14.115 2.722 13.394 2 12.5 2 C 11.606 2 10.885 2.722 10.885 3.615 L 10.885 4.348 C 7.805 5.08 6.038 7.837 6.038 11.154 L 6.038 16.538 L 3.885 18.692 L 3.885 19.769 L 21.115 19.769 L 21.115 18.692 L 18.962 16.538 Z " fill="rgb(255,255,255)"/></g></svg>