<?xml version="1.0" encoding="UTF-8" standalone="no"?><!-- Generator: Gravit.io --><svg xmlns="http://www.w3.org/2000/svg" xmlns:xlink="http://www.w3.org/1999/xlink" style="isolation:isolate" viewBox="0 0 25 25" width="25pt" height="25pt"><defs><clipPath id="_clipPath_0W6cFJL9OFGCf8zvypnqhvRvK9h7SDD9"><rect width="25" height="25"/></clipPath></defs><g clip-path="url(#_clipPath_0W6cFJL9OFGCf8zvypnqhvRvK9h7SDD9)"><path d=" M 20.368 7.927 C 20.312 7.91 20.252 7.904 20.193 7.91 C 20.159 7.914 16.724 8.254 15.505 8.395 C 15.46 8.4 15.415 8.403 15.37 8.403 C 15.254 8.403 15.048 8.382 14.971 8.243 C 14.888 8.094 14.913 7.754 15.229 7.248 L 15.283 7.163 C 15.769 6.389 16.014 5.999 16.014 5.196 C 16.014 3.434 14.55 2 12.75 2 C 10.951 2 9.486 3.434 9.486 5.196 C 9.486 6.003 9.774 6.568 10.272 7.271 C 10.624 7.769 10.672 8.095 10.605 8.223 C 10.542 8.345 10.29 8.413 9.973 8.392 C 8.844 8.316 5.35 7.914 5.337 7.913 C 5.263 7.901 5.189 7.895 5.114 7.894 C 4.714 7.894 4.024 8.088 3.875 9.378 C 3.836 9.567 3.653 10.585 3.386 14.125 C 3.358 14.269 3.375 14.402 3.396 14.513 C 3.493 15.013 3.823 15.312 4.278 15.312 C 4.749 15.312 5.291 14.995 6.011 14.484 C 6.612 14.059 7.108 13.87 7.62 13.87 C 8.916 13.87 9.971 14.894 9.971 16.152 C 9.971 17.411 8.916 18.435 7.62 18.435 C 7.015 18.435 6.602 18.27 5.98 17.782 C 5.259 17.215 4.722 16.951 4.288 16.951 C 3.905 16.951 3.6 17.159 3.452 17.52 C 3.365 17.73 3.354 18.049 3.385 18.226 C 3.623 20.71 3.738 21.162 3.839 21.559 L 3.882 21.733 C 4.059 22.502 4.601 23 5.263 23 L 19.887 23 C 20.946 23 21.63 22.328 21.63 21.288 L 21.63 9.482 C 21.63 8.7 21.206 8.176 20.368 7.927 Z " fill="rgb(255,255,255)"/></g></svg>