<?xml version="1.0" encoding="UTF-8" standalone="no"?><!-- Generator: Gravit.io --><svg xmlns="http://www.w3.org/2000/svg" xmlns:xlink="http://www.w3.org/1999/xlink" style="isolation:isolate" viewBox="0 0 25 25" width="25pt" height="25pt"><defs><clipPath id="_clipPath_73HzHBcEBQrIu8BR9rNoUPAnphNc33Tv"><rect width="25" height="25"/></clipPath></defs><g clip-path="url(#_clipPath_73HzHBcEBQrIu8BR9rNoUPAnphNc33Tv)"><path d=" M 21.909 6.227 L 3.091 6.227 C 1.941 6.227 1 7.168 1 8.318 L 1 16.682 C 1 17.832 1.941 18.773 3.091 18.773 L 21.909 18.773 C 23.059 18.773 24 17.832 24 16.682 L 24 8.318 C 24 7.168 23.059 6.227 21.909 6.227 Z  M 11.455 13.545 L 8.318 13.545 L 8.318 16.682 L 6.227 16.682 L 6.227 13.545 L 3.091 13.545 L 3.091 11.455 L 6.227 11.455 L 6.227 8.318 L 8.318 8.318 L 8.318 11.455 L 11.455 11.455 L 11.455 13.545 Z  M 16.159 15.636 C 15.291 15.636 14.591 14.936 14.591 14.068 C 14.591 13.2 15.291 12.5 16.159 12.5 C 17.027 12.5 17.727 13.2 17.727 14.068 C 17.727 14.936 17.027 15.636 16.159 15.636 Z  M 20.341 12.5 C 19.473 12.5 18.773 11.8 18.773 10.932 C 18.773 10.064 19.473 9.364 20.341 9.364 C 21.209 9.364 21.909 10.064 21.909 10.932 C 21.909 11.8 21.209 12.5 20.341 12.5 Z " fill="rgb(255,255,255)"/></g></svg>