<?xml version="1.0" encoding="UTF-8" standalone="no"?><!-- Generator: Gravit.io --><svg xmlns="http://www.w3.org/2000/svg" xmlns:xlink="http://www.w3.org/1999/xlink" style="isolation:isolate" viewBox="0 0 25 25" width="25pt" height="25pt"><defs><clipPath id="_clipPath_GMDuomD4uXcipcEUn4rputJHKmtTg3FM"><rect width="25" height="25"/></clipPath></defs><g clip-path="url(#_clipPath_GMDuomD4uXcipcEUn4rputJHKmtTg3FM)"><g><g><path d="M 20 2 L 20 2 C 20.828 2 21.5 2.776 21.5 3.732 L 21.5 21.268 C 21.5 22.224 20.828 23 20 23 L 20 23 C 19.172 23 18.5 22.224 18.5 21.268 L 18.5 3.732 C 18.5 2.776 19.172 2 20 2 Z" style="stroke:none;fill:#FFFFFF;stroke-miterlimit:10;"/><rect x="16" y="11" width="8" height="3" transform="matrix(1,0,0,1,0,0)" fill="rgb(255,255,255)"/></g><g><path d="M 12.5 2 L 12.5 2 C 13.328 2 14 2.776 14 3.732 L 14 21.268 C 14 22.224 13.328 23 12.5 23 L 12.5 23 C 11.672 23 11 22.224 11 21.268 L 11 3.732 C 11 2.776 11.672 2 12.5 2 Z" style="stroke:none;fill:#FFFFFF;stroke-miterlimit:10;"/><rect x="8.5" y="17" width="8" height="3" transform="matrix(1,0,0,1,0,0)" fill="rgb(255,255,255)"/></g><g><path d="M 5 2 L 5 2 C 5.828 2 6.5 2.776 6.5 3.732 L 6.5 21.268 C 6.5 22.224 5.828 23 5 23 L 5 23 C 4.172 23 3.5 22.224 3.5 21.268 L 3.5 3.732 C 3.5 2.776 4.172 2 5 2 Z" style="stroke:none;fill:#FFFFFF;stroke-miterlimit:10;"/><rect x="1" y="5" width="8" height="3" transform="matrix(1,0,0,1,0,0)" fill="rgb(255,255,255)"/></g></g></g></svg>