<?xml version="1.0" encoding="UTF-8" standalone="no"?><!-- Generator: Gravit.io --><svg xmlns="http://www.w3.org/2000/svg" xmlns:xlink="http://www.w3.org/1999/xlink" style="isolation:isolate" viewBox="0 0 25 25" width="25pt" height="25pt"><defs><clipPath id="_clipPath_KFOVea1xMgLvYQ076seQoyT5eQZBFdlY"><rect width="25" height="25"/></clipPath></defs><g clip-path="url(#_clipPath_KFOVea1xMgLvYQ076seQoyT5eQZBFdlY)"><mask id="_mask_KMIgOWV0AVeI03YZ8jYuz0I8mDMyHfkf"><path d=" M 20.304 13.529 C 20.346 13.193 20.377 12.857 20.377 12.5 C 20.377 12.143 20.346 11.807 20.304 11.471 L 22.519 9.739 C 22.719 9.581 22.771 9.298 22.645 9.067 L 20.545 5.434 C 20.419 5.203 20.136 5.119 19.905 5.203 L 17.29 6.253 C 16.744 5.833 16.156 5.486 15.516 5.224 L 15.117 2.441 C 15.081 2.185 14.86 1.996 14.602 2 L 10.402 2 C 10.14 2 9.919 2.189 9.888 2.441 L 9.489 5.224 C 8.848 5.486 8.26 5.843 7.714 6.253 L 5.1 5.203 C 4.858 5.108 4.585 5.203 4.459 5.434 L 2.359 9.067 C 2.223 9.298 2.286 9.581 2.485 9.739 L 4.701 11.471 C 4.659 11.807 4.627 12.154 4.627 12.5 C 4.627 12.847 4.659 13.193 4.701 13.529 L 2.485 15.262 C 2.286 15.419 2.233 15.703 2.359 15.934 L 4.459 19.567 C 4.585 19.798 4.869 19.882 5.1 19.798 L 7.714 18.748 C 8.26 19.168 8.848 19.514 9.489 19.777 L 9.888 22.559 C 9.919 22.811 10.14 23 10.402 23 L 14.602 23 C 14.865 23 15.085 22.811 15.117 22.559 L 15.516 19.777 C 16.156 19.514 16.744 19.157 17.29 18.748 L 19.905 19.798 C 20.146 19.892 20.419 19.798 20.545 19.567 L 22.645 15.934 C 22.771 15.703 22.719 15.419 22.519 15.262 L 20.304 13.529 Z  M 12.502 16.175 C 10.476 16.175 8.827 14.527 8.827 12.5 C 8.827 10.474 10.476 8.825 12.502 8.825 C 14.529 8.825 16.177 10.474 16.177 12.5 C 16.177 14.527 14.529 16.175 12.502 16.175 Z " fill="white" stroke="none"/></mask><path d=" M 20.304 13.529 C 20.346 13.193 20.377 12.857 20.377 12.5 C 20.377 12.143 20.346 11.807 20.304 11.471 L 22.519 9.739 C 22.719 9.581 22.771 9.298 22.645 9.067 L 20.545 5.434 C 20.419 5.203 20.136 5.119 19.905 5.203 L 17.29 6.253 C 16.744 5.833 16.156 5.486 15.516 5.224 L 15.117 2.441 C 15.081 2.185 14.86 1.996 14.602 2 L 10.402 2 C 10.14 2 9.919 2.189 9.888 2.441 L 9.489 5.224 C 8.848 5.486 8.26 5.843 7.714 6.253 L 5.1 5.203 C 4.858 5.108 4.585 5.203 4.459 5.434 L 2.359 9.067 C 2.223 9.298 2.286 9.581 2.485 9.739 L 4.701 11.471 C 4.659 11.807 4.627 12.154 4.627 12.5 C 4.627 12.847 4.659 13.193 4.701 13.529 L 2.485 15.262 C 2.286 15.419 2.233 15.703 2.359 15.934 L 4.459 19.567 C 4.585 19.798 4.869 19.882 5.1 19.798 L 7.714 18.748 C 8.26 19.168 8.848 19.514 9.489 19.777 L 9.888 22.559 C 9.919 22.811 10.14 23 10.402 23 L 14.602 23 C 14.865 23 15.085 22.811 15.117 22.559 L 15.516 19.777 C 16.156 19.514 16.744 19.157 17.29 18.748 L 19.905 19.798 C 20.146 19.892 20.419 19.798 20.545 19.567 L 22.645 15.934 C 22.771 15.703 22.719 15.419 22.519 15.262 L 20.304 13.529 Z  M 12.502 16.175 C 10.476 16.175 8.827 14.527 8.827 12.5 C 8.827 10.474 10.476 8.825 12.502 8.825 C 14.529 8.825 16.177 10.474 16.177 12.5 C 16.177 14.527 14.529 16.175 12.502 16.175 Z " fill="none"/><path d=" M 20.304 13.529 C 20.346 13.193 20.377 12.857 20.377 12.5 C 20.377 12.143 20.346 11.807 20.304 11.471 L 22.519 9.739 C 22.719 9.581 22.771 9.298 22.645 9.067 L 20.545 5.434 C 20.419 5.203 20.136 5.119 19.905 5.203 L 17.29 6.253 C 16.744 5.833 16.156 5.486 15.516 5.224 L 15.117 2.441 C 15.081 2.185 14.86 1.996 14.602 2 L 10.402 2 C 10.14 2 9.919 2.189 9.888 2.441 L 9.489 5.224 C 8.848 5.486 8.26 5.843 7.714 6.253 L 5.1 5.203 C 4.858 5.108 4.585 5.203 4.459 5.434 L 2.359 9.067 C 2.223 9.298 2.286 9.581 2.485 9.739 L 4.701 11.471 C 4.659 11.807 4.627 12.154 4.627 12.5 C 4.627 12.847 4.659 13.193 4.701 13.529 L 2.485 15.262 C 2.286 15.419 2.233 15.703 2.359 15.934 L 4.459 19.567 C 4.585 19.798 4.869 19.882 5.1 19.798 L 7.714 18.748 C 8.26 19.168 8.848 19.514 9.489 19.777 L 9.888 22.559 C 9.919 22.811 10.14 23 10.402 23 L 14.602 23 C 14.865 23 15.085 22.811 15.117 22.559 L 15.516 19.777 C 16.156 19.514 16.744 19.157 17.29 18.748 L 19.905 19.798 C 20.146 19.892 20.419 19.798 20.545 19.567 L 22.645 15.934 C 22.771 15.703 22.719 15.419 22.519 15.262 L 20.304 13.529 Z  M 12.502 16.175 C 10.476 16.175 8.827 14.527 8.827 12.5 C 8.827 10.474 10.476 8.825 12.502 8.825 C 14.529 8.825 16.177 10.474 16.177 12.5 C 16.177 14.527 14.529 16.175 12.502 16.175 Z " fill="none" mask="url(#_mask_KMIgOWV0AVeI03YZ8jYuz0I8mDMyHfkf)" vector-effect="non-scaling-stroke" stroke-width="2" stroke="rgb(255,255,255)" stroke-linejoin="miter" stroke-linecap="square" stroke-miterlimit="3"/></g></svg>